<?xml version="1.0" standalone="no"?>
<!DOCTYPE svg PUBLIC "-//W3C//DTD SVG 20010904//EN"
 "http://www.w3.org/TR/2001/REC-SVG-20010904/DTD/svg10.dtd">
<svg version="1.0" xmlns="http://www.w3.org/2000/svg"
 width="340.000000pt" height="340.000000pt" viewBox="0 0 340.000000 340.000000"
 preserveAspectRatio="xMidYMid meet">

<g transform="translate(0.000000,340.000000) scale(0.100000,-0.100000)"
fill="#000000" stroke="none">
<path d="M1635 3338 c-25 -30 -27 -36 -21 -102 18 -219 19 -281 2 -295 -9 -7
-16 -24 -16 -37 0 -19 -7 -24 -37 -29 -184 -31 -283 -60 -408 -122 -105 -53
-202 -120 -283 -197 -55 -53 -76 -66 -84 -58 -7 7 -27 12 -46 12 -30 0 -47 13
-145 111 -61 61 -122 115 -136 120 -35 14 -77 2 -101 -28 -45 -57 -15 -120 86
-178 114 -66 183 -122 190 -152 4 -16 13 -34 22 -40 14 -11 9 -24 -36 -110
-62 -119 -92 -198 -123 -323 -20 -83 -24 -119 -24 -282 0 -139 -3 -188 -12
-188 -7 0 -24 -11 -39 -25 -34 -32 -74 -42 -205 -54 -147 -13 -189 -37 -189
-111 0 -77 88 -102 198 -56 112 47 201 70 228 57 14 -6 35 -11 48 -11 19 0 27
-12 54 -82 86 -226 265 -448 469 -584 45 -30 52 -38 43 -54 -5 -10 -7 -32 -4
-48 7 -32 -19 -90 -81 -182 -82 -122 -95 -181 -50 -225 48 -49 120 -24 154 54
11 27 21 54 21 60 0 5 14 49 32 97 25 69 41 97 76 131 l44 43 80 -25 c237 -75
529 -72 754 8 l41 15 45 -42 c36 -33 50 -57 76 -129 18 -48 32 -93 32 -98 0
-6 10 -33 21 -60 21 -48 57 -79 93 -79 28 0 64 22 75 47 23 51 10 93 -64 203
-65 96 -83 141 -83 201 l1 54 60 40 c185 122 354 337 448 570 29 71 40 89 54
87 10 -2 29 2 42 9 29 16 86 4 212 -46 51 -20 108 -35 131 -35 113 0 122 151
12 179 -20 5 -76 12 -125 16 -106 7 -174 27 -194 54 -8 12 -22 21 -32 21 -17
0 -18 9 -13 128 10 246 -52 499 -171 697 -35 59 -35 60 -16 81 10 11 19 28 19
36 0 23 69 80 170 142 129 79 160 146 94 204 -51 45 -107 23 -195 -78 -72 -83
-145 -140 -178 -140 -15 0 -32 -5 -38 -11 -9 -9 -32 7 -91 58 -204 180 -391
267 -684 317 -29 5 -38 12 -38 27 0 11 -10 33 -21 49 -21 28 -21 31 -8 137 7
59 13 137 14 171 0 58 -3 66 -28 88 -41 35 -88 32 -122 -8z m-57 -817 c-2 -60
-6 -112 -9 -115 -3 -4 -118 -5 -255 -4 l-249 3 65 48 c85 64 212 123 324 152
139 36 129 43 124 -84z m407 72 c117 -36 333 -156 335 -185 0 -5 -110 -8 -245
-8 -188 0 -247 3 -250 13 -2 6 -6 59 -8 116 l-5 103 46 -7 c26 -4 83 -18 127
-32z m605 -488 l0 -205 -890 0 -890 0 0 205 0 205 890 0 890 0 0 -205z m-1709
-302 c1 -32 1 -65 0 -73 -1 -8 11 0 26 18 19 22 37 32 56 32 34 0 34 -6 -2
-49 l-28 -35 33 -46 c19 -26 34 -50 34 -54 0 -3 -15 -6 -34 -6 -25 0 -36 5
-41 19 -6 19 -48 62 -45 46 2 -6 2 -22 1 -37 -1 -23 -6 -28 -26 -28 l-25 0 0
128 c0 71 3 132 7 135 3 4 15 7 25 7 15 0 18 -9 19 -57z m379 17 c0 -39 1 -40
34 -40 47 0 76 -37 76 -97 0 -61 -32 -93 -94 -93 -78 0 -76 -3 -76 135 0 127
2 132 43 134 13 1 17 -7 17 -39z m910 -15 c0 -21 5 -25 30 -25 25 0 30 -4 30
-25 0 -21 -5 -25 -30 -25 -29 0 -30 -2 -30 -45 0 -44 1 -45 31 -45 26 0 30 -3
27 -22 -4 -33 -68 -38 -97 -9 -18 18 -21 33 -21 115 0 96 3 103 43 105 12 1
17 -7 17 -24z m-1098 -92 c2 -55 6 -68 21 -71 15 -3 17 5 17 67 l0 71 30 0 30
0 0 -89 c0 -100 -1 -101 -75 -101 -64 0 -85 31 -85 121 l0 69 30 0 c29 0 29 0
32 -67z m465 45 c16 -15 23 -33 23 -60 l0 -38 -51 0 c-34 0 -48 -4 -43 -11 4
-7 22 -9 46 -6 38 5 39 4 36 -21 -3 -24 -7 -27 -49 -30 -38 -2 -52 2 -75 22
-24 20 -29 32 -29 71 0 39 5 51 28 71 36 30 83 31 114 2z m171 -5 c-3 -24 -7
-28 -30 -25 l-28 3 0 -70 0 -71 -30 0 -30 0 0 89 c0 100 -2 98 78 100 42 1 43
0 40 -26z m158 6 c14 -15 20 -40 22 -95 l4 -74 -30 0 -31 0 -3 67 c-2 55 -6
68 -20 71 -16 3 -18 -5 -18 -67 l0 -71 -30 0 -30 0 0 88 c0 49 3 92 7 95 3 4
30 7 58 7 40 0 56 -5 71 -21z m191 -1 c16 -15 23 -33 23 -60 l0 -38 -51 0
c-34 0 -48 -4 -43 -11 4 -7 22 -9 46 -6 38 5 39 4 36 -21 -3 -24 -7 -27 -49
-30 -38 -2 -52 2 -75 22 -24 20 -29 32 -29 71 0 39 5 51 28 71 36 30 83 31
114 2z m332 -4 c12 -15 21 -41 21 -60 l0 -34 -51 0 c-34 0 -48 -4 -43 -11 4
-7 22 -9 46 -6 38 5 39 4 36 -21 -3 -25 -7 -27 -51 -30 -42 -3 -51 1 -78 28
-28 27 -31 36 -26 71 7 56 40 89 88 89 29 0 42 -6 58 -26z m171 2 c0 -21 -5
-25 -37 -28 l-38 -3 40 -21 c77 -40 53 -114 -36 -114 -51 0 -64 9 -54 39 5 16
13 19 43 15 33 -4 35 -3 18 8 -47 31 -67 58 -61 81 10 33 34 47 82 47 39 0 43
-2 43 -24z m30 -516 l0 -280 -890 0 -890 0 0 280 0 280 890 0 890 0 0 -280z
m-1380 -374 c0 -2 -9 -24 -21 -50 l-20 -46 -45 31 c-24 18 -51 41 -61 51 -15
17 -13 18 65 18 45 0 82 -2 82 -4z m758 -95 c29 -54 52 -101 52 -104 0 -3 -42
-16 -92 -28 -131 -32 -325 -32 -456 0 -57 14 -92 27 -90 34 2 7 25 54 53 105
l50 92 215 0 216 0 52 -99z m382 92 c-1 -7 -76 -68 -106 -86 -9 -5 -19 6 -33
39 -12 26 -21 48 -21 50 0 2 36 4 80 4 44 0 80 -3 80 -7z"/>
<path d="M953 2166 c-24 -21 -28 -32 -28 -76 0 -44 4 -55 28 -76 32 -28 92
-32 123 -10 29 22 6 41 -29 25 -35 -16 -74 1 -83 36 -16 63 29 110 83 86 35
-16 58 3 29 25 -31 22 -91 18 -123 -10z"/>
<path d="M1140 2090 l0 -100 73 0 c59 0 74 3 74 15 0 11 -13 15 -54 15 -52 0
-53 0 -53 30 0 29 2 30 45 30 33 0 45 4 45 15 0 11 -12 15 -45 15 -41 0 -45 2
-45 25 0 23 3 25 50 25 38 0 50 4 50 15 0 12 -14 15 -70 15 l-70 0 0 -100z"/>
<path d="M1330 2090 c0 -93 1 -100 20 -100 16 0 20 7 20 35 0 29 4 35 20 35
13 0 28 -13 41 -35 12 -20 29 -35 40 -35 24 0 24 5 -2 42 l-21 29 21 15 c14
10 21 26 21 49 0 47 -29 65 -102 65 l-58 0 0 -100z m114 54 c9 -8 16 -19 16
-23 0 -17 -26 -31 -57 -31 -31 0 -33 2 -33 35 0 32 2 35 29 35 16 0 37 -7 45
-16z"/>
<path d="M1530 2175 c0 -10 10 -15 30 -15 l30 0 0 -85 c0 -68 3 -85 15 -85 11
0 15 18 17 83 l3 82 30 5 c17 3 31 11 33 18 1 9 -19 12 -78 12 -64 0 -80 -3
-80 -15z"/>
<path d="M1730 2090 c0 -92 2 -100 19 -100 18 0 19 8 19 100 0 92 -1 100 -19
100 -17 0 -19 -8 -19 -100z"/>
<path d="M1821 2090 c1 -91 3 -100 20 -100 15 0 19 8 19 40 l0 40 48 0 c37 0
49 4 49 15 0 11 -12 15 -49 15 -47 0 -48 1 -48 30 0 30 1 30 55 30 42 0 55 3
55 15 0 12 -15 15 -75 15 l-76 0 2 -100z"/>
<path d="M2015 2090 c0 -89 2 -100 18 -100 15 0 17 11 17 100 0 89 -2 100 -17
100 -16 0 -18 -11 -18 -100z"/>
<path d="M2110 2090 l0 -100 70 0 c54 0 70 3 70 14 0 11 -15 16 -52 18 -49 3
-53 5 -53 28 0 23 4 25 48 28 33 2 47 7 47 18 0 10 -13 14 -51 14 -47 0 -50 2
-47 23 3 19 10 22 56 25 37 2 52 7 52 18 0 11 -16 14 -70 14 l-70 0 0 -100z"/>
<path d="M2300 2090 l0 -100 44 0 c107 0 161 63 124 145 -16 36 -57 55 -118
55 l-50 0 0 -100z m120 50 c43 -43 7 -120 -56 -120 -23 0 -24 3 -24 70 l0 70
30 0 c17 0 39 -9 50 -20z"/>
<path d="M1260 1685 c0 -42 2 -46 23 -43 19 3 22 9 22 43 0 34 -3 40 -22 43
-21 3 -23 -1 -23 -43z"/>
<path d="M1455 1720 c-4 -6 7 -10 25 -10 18 0 29 4 25 10 -3 6 -15 10 -25 10
-10 0 -22 -4 -25 -10z"/>
<path d="M1975 1720 c-4 -6 7 -10 25 -10 18 0 29 4 25 10 -3 6 -15 10 -25 10
-10 0 -22 -4 -25 -10z"/>
<path d="M2305 1720 c-4 -6 5 -10 19 -10 14 0 26 5 26 10 0 6 -9 10 -19 10
-11 0 -23 -4 -26 -10z"/>
<path d="M1023 1403 c-3 -10 -17 -42 -29 -70 -18 -41 -20 -53 -9 -53 7 0 17 9
20 20 9 28 59 27 79 -2 27 -39 28 -12 0 56 -26 66 -48 83 -61 49z m41 -65 c-7
-10 -31 -10 -37 0 -3 4 0 18 5 32 l9 25 14 -25 c7 -14 11 -28 9 -32z"/>
<path d="M1150 1350 c0 -40 4 -70 10 -70 6 0 10 11 10 25 0 20 5 25 24 25 43
0 56 10 56 45 0 37 -12 45 -66 45 l-34 0 0 -70z m75 25 c0 -14 -8 -21 -27 -23
-24 -3 -28 0 -28 23 0 23 4 26 28 23 19 -2 27 -9 27 -23z"/>
<path d="M1290 1350 c0 -40 4 -70 10 -70 6 0 10 11 10 25 0 21 5 25 28 25 33
0 52 16 52 45 0 31 -19 45 -62 45 l-38 0 0 -70z m75 25 c0 -14 -8 -21 -27 -23
-24 -3 -28 0 -28 23 0 23 4 26 28 23 19 -2 27 -9 27 -23z"/>
<path d="M1430 1350 l0 -70 45 0 c25 0 45 5 45 10 0 6 -16 10 -35 10 l-35 0 0
60 c0 33 -4 60 -10 60 -6 0 -10 -30 -10 -70z"/>
<path d="M1560 1350 c0 -40 4 -70 10 -70 6 0 10 30 10 70 0 40 -4 70 -10 70
-6 0 -10 -30 -10 -70z"/>
<path d="M1636 1398 c-46 -65 14 -140 88 -112 30 11 16 25 -18 19 -29 -6 -37
-3 -50 17 -28 43 4 87 57 76 9 -2 17 2 19 7 2 6 -16 11 -39 13 -33 2 -44 -1
-57 -20z"/>
<path d="M1798 1353 c-28 -68 -28 -96 -1 -55 20 29 73 31 80 2 3 -11 11 -20
19 -20 11 0 9 11 -7 51 -43 112 -54 114 -91 22z m56 15 c9 -35 8 -38 -14 -38
-11 0 -20 3 -20 8 0 19 13 52 20 52 4 0 10 -10 14 -22z"/>
<path d="M1910 1410 c0 -5 11 -10 25 -10 24 0 25 -3 25 -60 0 -33 4 -60 10
-60 6 0 10 27 10 60 0 57 1 60 25 60 14 0 25 5 25 10 0 6 -27 10 -60 10 -33 0
-60 -4 -60 -10z"/>
<path d="M2060 1350 c0 -40 4 -70 10 -70 6 0 10 30 10 70 0 40 -4 70 -10 70
-6 0 -10 -30 -10 -70z"/>
<path d="M2154 1412 c-21 -13 -34 -52 -28 -77 14 -57 88 -74 123 -29 26 34 27
68 1 94 -20 20 -74 27 -96 12z m75 -26 c17 -20 10 -67 -11 -79 -27 -18 -68 7
-68 41 0 15 5 33 12 40 16 16 53 15 67 -2z"/>
<path d="M2310 1350 c0 -40 4 -70 10 -70 6 0 10 20 10 45 0 25 3 45 8 45 4 0
21 -21 37 -45 43 -65 55 -59 55 25 0 58 -3 70 -16 70 -13 0 -15 -8 -12 -40 2
-22 0 -40 -4 -40 -5 0 -21 18 -36 40 -41 59 -52 52 -52 -30z"/>
<path d="M1040 1141 l0 -71 43 0 c52 0 80 25 80 71 0 41 -22 60 -77 66 l-46 6
0 -72z m82 32 c37 -33 17 -83 -34 -83 -26 0 -28 3 -28 43 0 24 3 47 7 50 11
12 36 8 55 -10z"/>
<path d="M1200 1140 l0 -70 56 0 c34 0 53 4 49 10 -3 6 -22 10 -41 10 -27 0
-34 4 -34 20 0 16 7 20 36 20 21 0 33 4 29 10 -3 6 -19 10 -36 10 -22 0 -29 5
-29 20 0 16 7 20 35 20 19 0 35 5 35 10 0 6 -22 10 -50 10 l-50 0 0 -70z"/>
<path d="M1351 1158 c12 -29 24 -61 27 -71 9 -34 36 -12 59 48 25 66 27 75 14
75 -5 0 -17 -22 -27 -50 -10 -27 -21 -50 -25 -50 -4 0 -15 23 -24 50 -9 28
-23 50 -31 50 -11 0 -9 -11 7 -52z"/>
<path d="M1500 1140 l0 -70 50 0 c28 0 50 5 50 10 0 6 -18 10 -40 10 -33 0
-40 3 -40 20 0 16 7 20 35 20 19 0 35 5 35 10 0 6 -16 10 -35 10 -28 0 -35 4
-35 20 0 17 7 20 40 20 22 0 40 5 40 10 0 6 -22 10 -50 10 l-50 0 0 -70z"/>
<path d="M1640 1140 l0 -70 45 0 c25 0 45 5 45 10 0 6 -16 10 -35 10 l-35 0 0
60 c0 33 -4 60 -10 60 -6 0 -10 -30 -10 -70z"/>
<path d="M1775 1185 c-59 -58 4 -143 82 -110 49 21 58 71 18 110 -13 14 -36
25 -50 25 -14 0 -37 -11 -50 -25z m76 -5 c22 -12 26 -59 7 -78 -7 -7 -21 -12
-33 -12 -29 0 -45 19 -45 52 0 39 34 57 71 38z"/>
<path d="M1940 1140 c0 -40 4 -70 10 -70 6 0 10 9 10 20 0 14 7 20 21 20 37 0
59 19 59 50 0 34 -23 50 -69 50 l-31 0 0 -70z m70 35 c16 -19 -3 -45 -31 -45
-14 0 -19 7 -19 30 0 23 5 30 19 30 10 0 24 -7 31 -15z"/>
<path d="M2075 1181 c-3 -15 -5 -47 -4 -70 l3 -41 53 0 c29 0 53 5 53 10 0 6
-18 10 -40 10 -33 0 -40 3 -40 20 0 16 7 20 35 20 19 0 35 5 35 10 0 6 -16 10
-35 10 -28 0 -35 4 -35 20 0 17 7 20 40 20 22 0 40 5 40 10 0 6 -22 10 -49 10
-46 0 -50 -2 -56 -29z"/>
<path d="M2215 1140 c0 -49 4 -70 13 -70 6 0 12 11 12 25 0 14 4 25 9 25 12 0
41 -29 41 -41 0 -5 7 -9 15 -9 17 0 19 12 5 26 -8 8 -5 21 7 43 18 32 18 32
-6 52 -13 11 -38 19 -60 19 l-36 0 0 -70z m83 26 c4 -20 -13 -36 -40 -36 -13
0 -18 8 -18 31 0 27 3 30 27 27 18 -2 29 -10 31 -22z"/>
</g>
</svg>
